<svg id="icons" enable-background="new 0 0 64 64" height="512" viewBox="0 0 64 64" width="512" xmlns="http://www.w3.org/2000/svg"><g><g><path d="m24.925 25.219 7.08 7.07-4.25 4.25-7.08-7.08z" fill="#d7e9ff"/></g><g><path d="m27.755 18.149-4.95 4.94-4.25 4.25-4.94 4.95-11.32-11.32 14.14-14.14z" fill="#94c1ff"/></g><g><path d="m53.925 54.209-4.25 4.25-17.67-17.67 4.24-4.25z" fill="#d7e9ff"/></g><g><path d="m41.205 23.099-4.95-4.95 11.309-11.32 14.141 14.14-11.31 11.32-4.95-4.95z" fill="#94c1ff"/></g><g><path d="m45.445 27.339-2.12 2.12-4.25-4.24 2.13-2.12z" fill="#94c1ff"/></g><g><g><path d="m2.295 20.969 11.32 11.32-.71.71c-.78.77-2.051.77-2.83 0l-8.49-8.49c-.78-.779-.78-2.05 0-2.83z" fill="#d7e9ff"/></g><g><path d="m44.024 6.119c.78-.771 2.051-.771 2.83 0l.71.71-11.31 11.32-.71-.71c-.78-.78-.78-2.051 0-2.83z" fill="#d7e9ff"/></g><g><path d="m28.455 14.609c.78.779.78 2.05 0 2.83l-.7.71-11.32-11.32.71-.71c.78-.771 2.051-.771 2.83 0z" fill="#d7e9ff"/></g><g><path d="m62.415 21.679c.78.78.78 2.051 0 2.83l-8.49 8.49c-.77.77-2.05.77-2.82 0l-.71-.71 11.311-11.32z" fill="#d7e9ff"/></g></g><g><path d="m22.805 23.089 2.12 2.13-4.25 4.24-2.12-2.12z" fill="#94c1ff"/></g><g><path d="m32.005 40.789-17.68 17.67-4.24-4.25 17.67-17.67 4.25-4.25 7.07-7.07 4.25 4.24-7.08 7.08z" fill="#d7e9ff"/></g></g><g><g><g><path d="m52.515 34.58c-.804 0-1.557-.312-2.122-.877l-15.558-15.557c-1.17-1.168-1.17-3.071-.001-4.242l8.487-8.485c1.129-1.131 3.111-1.129 4.242-.002l15.557 15.56c1.169 1.169 1.17 3.071.003 4.241l-8.487 8.485c-.565.566-1.318.877-2.121.877zm-7.073-28.038c-.269 0-.52.103-.707.29l-8.486 8.485c-.39.391-.39 1.024 0 1.413l15.559 15.559c.375.375 1.04.375 1.413 0l8.487-8.484c.389-.39.388-1.024-.002-1.414l-15.557-15.56c-.186-.186-.437-.289-.707-.289z" fill="#116fff"/></g><g><path d="m14.327 59.457c-.266 0-.52-.105-.707-.293l-4.244-4.244c-.391-.391-.391-1.023 0-1.414l31.117-31.118c.391-.391 1.023-.391 1.414 0l4.244 4.243c.188.188.293.441.293.707s-.105.52-.293.707l-31.117 31.119c-.187.188-.441.293-.707.293zm-2.83-5.244 2.83 2.83 29.703-29.705-2.83-2.829z" fill="#116fff"/></g><g><path d="m43.323 30.46c-.256 0-.512-.098-.707-.293l-4.244-4.244c-.391-.391-.391-1.023 0-1.414s1.023-.391 1.414 0l4.244 4.244c.391.391.391 1.023 0 1.414-.195.195-.451.293-.707.293z" fill="#116fff"/></g><g><path d="m36.251 19.146c-.256 0-.512-.098-.707-.293-.391-.391-.391-1.023 0-1.414l11.312-11.313c.391-.391 1.023-.391 1.414 0s.391 1.023 0 1.414l-11.312 11.313c-.195.195-.451.293-.707.293z" fill="#116fff"/></g><g><path d="m50.392 33.287c-.256 0-.512-.098-.707-.293-.391-.391-.391-1.023 0-1.414l11.314-11.313c.391-.391 1.023-.391 1.414 0s.391 1.023 0 1.414l-11.314 11.313c-.196.195-.452.293-.707.293z" fill="#116fff"/></g></g><g><g><path d="m11.487 34.58c-.804 0-1.557-.312-2.122-.877l-8.483-8.484c-.566-.565-.878-1.319-.877-2.123 0-.803.312-1.557.878-2.121l15.555-15.558c1.129-1.128 3.111-1.129 4.242-.001l8.484 8.486c.566.565.878 1.319.877 2.123 0 .804-.312 1.558-.878 2.122l-15.555 15.556c-.564.566-1.317.877-2.121.877zm7.073-28.039c-.27 0-.521.104-.707.29l-15.557 15.559c-.188.188-.291.438-.291.707-.001.269.103.52.291.707l8.484 8.485c.375.375 1.04.375 1.413 0l15.558-15.557c.188-.188.291-.438.291-.707.001-.27-.103-.521-.291-.708l-8.484-8.486c-.187-.186-.439-.29-.707-.29z" fill="#116fff"/></g><g><path d="m27.757 37.54c-.256 0-.512-.098-.707-.293l-9.201-9.201c-.188-.188-.293-.441-.293-.707s.105-.52.293-.707l4.246-4.245c.391-.391 1.023-.391 1.414 0l9.201 9.2c.391.391.391 1.023 0 1.414s-1.023.391-1.414 0l-8.494-8.493-2.832 2.831 8.494 8.494c.391.391.391 1.023 0 1.414-.195.195-.451.293-.707.293z" fill="#116fff"/></g><g><path d="m49.675 59.458c-.256 0-.512-.098-.707-.293l-17.676-17.677c-.391-.391-.391-1.023 0-1.414s1.023-.391 1.414 0l16.969 16.97 2.832-2.831-16.967-16.967c-.391-.391-.391-1.023 0-1.414s1.023-.391 1.414 0l17.674 17.674c.188.188.293.441.293.707s-.105.52-.293.707l-4.246 4.245c-.195.195-.451.293-.707.293z" fill="#116fff"/></g><g><path d="m20.679 30.46c-.256 0-.512-.098-.707-.293-.391-.391-.391-1.023 0-1.414l4.244-4.244c.391-.391 1.023-.391 1.414 0s.391 1.023 0 1.414l-4.244 4.244c-.196.195-.451.293-.707.293z" fill="#116fff"/></g><g><path d="m27.753 19.146c-.256 0-.512-.098-.707-.293l-11.315-11.314c-.391-.391-.391-1.023 0-1.414s1.023-.391 1.414 0l11.315 11.313c.391.391.391 1.023 0 1.414-.195.196-.451.294-.707.294z" fill="#116fff"/></g><g><path d="m13.61 33.288c-.256 0-.512-.098-.707-.293l-11.314-11.314c-.391-.391-.391-1.023 0-1.414s1.023-.391 1.414 0l11.314 11.314c.391.391.391 1.023 0 1.414-.195.195-.451.293-.707.293z" fill="#116fff"/></g></g></g></svg>