<svg height="485pt" viewBox="-9 0 485 485.77064" width="485pt" xmlns="http://www.w3.org/2000/svg"><g fill="#9bc9ff"><path d="m219.992188 314.671875c8.753906 4.160156 18.921874 4.160156 27.679687 0l66.078125-31.761719 83.199219-40 53.28125-25.601562c5.519531-2.671875 9.027343-8.265625 9.027343-14.398438 0-6.132812-3.507812-11.726562-9.027343-14.398437l-53.265625-25.601563-149.277344 71.726563c-8.757812 4.207031-18.953125 4.207031-27.714844 0l-149.277344-71.726563-53.265624 25.601563c-5.519532 2.671875-9.023438 8.265625-9.023438 14.398437 0 6.132813 3.503906 11.726563 9.023438 14.398438l53.28125 25.601562 83.199218 40zm0 0"/><path d="m247.671875 394.671875 149.277344-71.761719 53.28125-25.601562c5.519531-2.671875 9.027343-8.265625 9.027343-14.398438 0-6.132812-3.507812-11.726562-9.027343-14.398437l-53.28125-25.601563-83.199219 40-66.078125 31.761719c-8.757813 4.160156-18.925781 4.160156-27.679687 0l-66.082032-31.761719-83.199218-40-53.28125 25.601563c-5.519532 2.671875-9.023438 8.265625-9.023438 14.398437 0 6.132813 3.503906 11.726563 9.023438 14.398438l53.28125 25.601562 149.28125 71.761719c8.753906 4.160156 18.921874 4.160156 27.679687 0zm0 0"/><path d="m17.429688 377.308594 202.5625 97.363281c8.753906 4.160156 18.921874 4.160156 27.679687 0l202.558594-97.363281c5.519531-2.671875 9.027343-8.265625 9.027343-14.398438 0-6.132812-3.507812-11.726562-9.027343-14.398437l-53.28125-25.601563-149.277344 71.761719c-8.757813 4.160156-18.925781 4.160156-27.679687 0l-149.28125-71.761719-53.28125 25.601563c-5.519532 2.671875-9.023438 8.265625-9.023438 14.398437 0 6.132813 3.503906 11.726563 9.023438 14.398438zm0 0"/></g><path d="m467.292969 282.910156c.054687-9.234375-5.25-17.660156-13.597657-21.601562l-38.265624-18.398438 38.242187-18.398437c8.277344-4.011719 13.535156-12.402344 13.535156-21.601563 0-9.199218-5.257812-17.589844-13.535156-21.601562l-38.242187-18.398438 38.242187-18.398437c8.3125-3.996094 13.601563-12.40625 13.601563-21.632813 0-9.226562-5.289063-17.636718-13.601563-21.632812l-202.523437-97.28125c-10.941407-5.285156-23.703126-5.285156-34.644532 0l-202.511718 97.34375c-8.316407 3.996094-13.605469 12.40625-13.605469 21.632812 0 9.226563 5.289062 17.636719 13.605469 21.632813l38.238281 18.335937-38.238281 18.398438c-8.28125 4.011718-13.539063 12.402344-13.539063 21.601562 0 9.199219 5.257813 17.589844 13.539063 21.601563l38.238281 18.398437-38.238281 18.398438c-8.28125 4.011718-13.539063 12.402344-13.539063 21.601562 0 9.199219 5.257813 17.589844 13.539063 21.601563l38.238281 18.398437-38.238281 18.398438c-8.28125 4.011718-13.539063 12.402344-13.539063 21.601562 0 9.199219 5.257813 17.589844 13.539063 21.601563l202.550781 97.382812c10.953125 5.167969 23.644531 5.167969 34.597656 0l202.53125-97.382812c8.277344-4.011719 13.535156-12.402344 13.535156-21.601563 0-9.199218-5.257812-17.589844-13.535156-21.601562l-38.242187-18.398438 38.242187-18.398437c8.351563-3.941407 13.667969-12.363281 13.621094-21.601563zm-450.910157-160c-.039062-3.082031 1.738282-5.902344 4.535157-7.199218l202.511719-97.320313c6.570312-3.183594 14.230468-3.183594 20.800781 0l202.503906 97.320313c2.761719 1.335937 4.511719 4.132812 4.511719 7.199218s-1.75 5.863282-4.511719 7.199219l-202.503906 97.320313c-6.570313 3.179687-14.230469 3.179687-20.800781 0l-202.511719-97.320313c-2.796875-1.296875-4.574219-4.113281-4.535157-7.199219zm0 80c-.03125-3.078125 1.738282-5.894531 4.527344-7.199218l49.800782-23.9375 145.816406 70.066406c10.941406 5.289062 23.703125 5.289062 34.648437 0l145.789063-70.050782 49.816406 23.921876c2.738281 1.34375 4.472656 4.128906 4.472656 7.179687s-1.734375 5.835937-4.472656 7.179687l-202.550781 97.375c-6.585938 3.109376-14.214844 3.109376-20.800781 0l-202.558594-97.335937c-2.78125-1.3125-4.542969-4.125-4.503906-7.199219zm430.398438 152.800782c2.789062 1.3125 4.566406 4.117187 4.566406 7.199218 0 3.082032-1.777344 5.886719-4.566406 7.199219l-202.550781 97.335937c-6.585938 3.109376-14.214844 3.109376-20.800781 0l-202.558594-97.335937c-2.761719-1.335937-4.515625-4.132813-4.515625-7.199219s1.753906-5.863281 4.515625-7.199218l49.808594-23.9375 145.839843 70.105468c10.953125 5.167969 23.644531 5.167969 34.597657 0l145.839843-70.089844zm0-65.601563-202.550781 97.335937c-6.585938 3.109376-14.214844 3.109376-20.800781 0l-202.558594-97.335937c-2.761719-1.335937-4.515625-4.132813-4.515625-7.199219s1.753906-5.863281 4.515625-7.199218l49.808594-23.9375 145.839843 70.105468c10.953125 5.167969 23.644531 5.167969 34.597657 0l145.839843-70.089844 49.824219 23.921876c2.761719 1.335937 4.515625 4.132812 4.515625 7.199218s-1.753906 5.863282-4.515625 7.199219zm0 0" fill="#1e81ce"/></svg>