<svg height="480pt" viewBox="0 0 480 480" width="480pt" xmlns="http://www.w3.org/2000/svg"><path d="m339.679688 312c-5.6875-9.914062-16.25-16.019531-27.679688-16h-32l-13.359375 16-26.640625 32-26.640625-32-13.359375-16h-32c-17.65625.042969-31.957031 14.34375-32 32v144h208v-144c-.003906-5.621094-1.496094-11.140625-4.320312-16zm0 0" fill="#9bc9ff"/><path d="m184 224c-.042969-21.632812 12.429688-41.339844 32-50.558594v-5.441406c-.042969-17.65625-14.34375-31.957031-32-32h-32l-13.359375 16-26.640625 32-26.640625-32-13.359375-16h-32c-17.65625.042969-31.957031 14.34375-32 32v144h208v-37.441406c-19.570312-9.21875-32.042969-28.925782-32-50.558594zm0 0" fill="#9bc9ff"/><path d="m467.679688 152c-5.6875-9.914062-16.25-16.019531-27.679688-16h-32l-13.359375 16-26.640625 32-26.640625-32-13.359375-16h-32c-17.65625.042969-31.957031 14.34375-32 32v5.441406c19.539062 9.253906 31.996094 28.9375 31.996094 50.558594s-12.457032 41.304688-31.996094 50.558594v37.441406h208v-144c-.003906-5.621094-1.496094-11.140625-4.320312-16zm0 0" fill="#9bc9ff"/><g fill="#1e81ce"><path d="m240 288c-9.515625.039062-18.914062-2.097656-27.480469-6.238281-22.316406-10.59375-36.535156-33.09375-36.523437-57.796875.015625-24.703125 14.257812-47.191406 36.589844-57.757813 17.367187-8.246093 37.523437-8.246093 54.894531 0 22.316406 10.59375 36.535156 33.09375 36.523437 57.796875-.015625 24.703125-14.257812 47.1875-36.589844 57.757813-8.542968 4.132812-17.921874 6.269531-27.414062 6.238281zm0-112c-7.105469-.03125-14.121094 1.558594-20.519531 4.648438-20.289063 9.613281-31.207031 32.003906-26.277344 53.910156 4.925781 21.902344 24.378906 37.46875 46.828125 37.46875 22.453125 0 41.90625-15.566406 46.832031-37.46875 4.925781-21.90625-5.988281-44.296875-26.277343-53.910156-6.421876-3.09375-13.460938-4.683594-20.585938-4.648438zm0 0"/><path d="m112 128c-35.347656 0-64-28.652344-64-64s28.652344-64 64-64 64 28.652344 64 64c-.039062 35.328125-28.671875 63.960938-64 64zm0-112c-26.507812 0-48 21.492188-48 48s21.492188 48 48 48 48-21.492188 48-48c-.027344-26.5-21.5-47.972656-48-48zm0 0"/><path d="m368 128c-35.347656 0-64-28.652344-64-64s28.652344-64 64-64 64 28.652344 64 64c-.039062 35.328125-28.671875 63.960938-64 64zm0-112c-26.507812 0-48 21.492188-48 48s21.492188 48 48 48 48-21.492188 48-48c-.027344-26.5-21.5-47.972656-48-48zm0 0"/><path d="m206.398438 134.832031c-6.609376-4.472656-14.414063-6.851562-22.398438-6.832031h-32c-2.527344 0-3.320312-.511719-6.144531 2.878906l-33.855469 40.625-33.855469-40.625c-1.492187-1.859375-3.761719-2.925781-6.144531-2.878906h-32c-22.082031.027344-39.9726562 17.917969-40 40v144c0 4.417969 3.582031 8 8 8h100.320312c4.417969 0 8-3.582031 8-8s-3.582031-8-8-8h-44.320312v-88c0-4.417969-3.582031-8-8-8s-8 3.582031-8 8v88h-32v-136c0-13.253906 10.746094-24 24-24h28.257812l37.597657 45.121094c1.519531 1.820312 3.769531 2.875 6.144531 2.875s4.625-1.054688 6.144531-2.875l37.597657-45.121094h28.257812c4.78125-.011719 9.457031 1.417969 13.414062 4.097656 3.664063 2.480469 8.644532 1.519532 11.125-2.140625 2.480469-3.664062 1.523438-8.644531-2.140624-11.125zm0 0"/><path d="m346.617188 308c-7.140626-12.367188-20.335938-19.992188-34.617188-20h-32c-2.535156 0-3.304688-.511719-6.144531 2.871094l-33.855469 40.625-33.855469-40.625c-1.496093-1.855469-3.761719-2.914063-6.144531-2.871094h-32c-22.074219.039062-39.960938 17.925781-40 40v144c0 4.417969 3.582031 8 8 8h208c4.417969 0 8-3.582031 8-8v-144c-.015625-7.023438-1.871094-13.917969-5.382812-20zm-10.617188 156h-32v-96c0-4.417969-3.582031-8-8-8s-8 3.582031-8 8v96h-96v-88c0-4.417969-3.582031-8-8-8s-8 3.582031-8 8v88h-32v-136c.046875-13.234375 10.765625-23.953125 24-24h28.246094l37.601562 45.121094c1.519532 1.828125 3.773438 2.886718 6.152344 2.886718s4.632812-1.058593 6.152344-2.886718l37.601562-45.121094h28.246094c13.234375.046875 23.953125 10.765625 24 24zm0 0"/><path d="m440 128h-32c-2.527344 0-3.3125-.511719-6.144531 2.878906l-33.855469 40.625-33.855469-40.625c-2.824219-3.398437-3.617187-2.878906-6.144531-2.878906h-32c-10.613281-.03125-20.800781 4.1875-28.289062 11.710938-3.121094 3.128906-3.121094 8.191406.003906 11.316406 3.128906 3.125 8.195312 3.121094 11.316406-.003906 4.492188-4.511719 10.601562-7.042969 16.96875-7.023438h28.257812l37.597657 45.121094c1.519531 1.820312 3.769531 2.875 6.144531 2.875s4.625-1.054688 6.144531-2.875l37.597657-45.121094h28.257812c13.253906 0 24 10.746094 24 24v136h-32v-96c0-4.417969-3.582031-8-8-8s-8 3.582031-8 8v96h-44.320312c-4.417969 0-8 3.582031-8 8s3.582031 8 8 8h100.320312c4.417969 0 8-3.582031 8-8v-144c-.027344-22.082031-17.917969-39.972656-40-40zm0 0"/></g></svg>