<svg height="512" viewBox="0 0 64 64" width="512" xmlns="http://www.w3.org/2000/svg"><g id="File"><path d="m46 13h8l-10-10v8a2 2 0 0 0 2 2z" fill="#9bc9ff"/><path d="m16 35h6v6h-6z" fill="#9bc9ff"/><path d="m16 9h6v6h-6z" fill="#9bc9ff"/><path d="m16 22h6v6h-6z" fill="#9bc9ff"/><path d="m16 48h6v6h-6z" fill="#9bc9ff"/><g fill="#1e81ce"><path d="m22 42h-6a1 1 0 0 1 -1-1v-6a1 1 0 0 1 1-1h6a1 1 0 0 1 1 1v6a1 1 0 0 1 -1 1zm-5-2h4v-4h-4z"/><path d="m48 37h-22a1 1 0 0 1 0-2h22a1 1 0 0 1 0 2z"/><path d="m48 41h-22a1 1 0 0 1 0-2h22a1 1 0 0 1 0 2z"/><path d="m22 55h-6a1 1 0 0 1 -1-1v-6a1 1 0 0 1 1-1h6a1 1 0 0 1 1 1v6a1 1 0 0 1 -1 1zm-5-2h4v-4h-4z"/><path d="m48 50h-22a1 1 0 0 1 0-2h22a1 1 0 0 1 0 2z"/><path d="m48 54h-22a1 1 0 0 1 0-2h22a1 1 0 0 1 0 2z"/><path d="m54.707 12.293-10-10a1 1 0 0 0 -.707-.293h-34a1 1 0 0 0 -1 1v58a1 1 0 0 0 1 1h44a1 1 0 0 0 1-1v-48a1 1 0 0 0 -.293-.707zm-9.707-6.879 6.586 6.586h-5.586a1 1 0 0 1 -1-1zm-34 54.586v-56h32v7a3 3 0 0 0 3 3h7v46z"/><path d="m16 16h6a1 1 0 0 0 0-2h-.7l4.466-5.36a1 1 0 1 0 -1.536-1.28l-4.3 5.159-1.226-1.226a1 1 0 1 0 -1.414 1.414l1.296 1.293h-1.586v-4h4a1 1 0 0 0 0-2h-5a1 1 0 0 0 -1 1v6a1 1 0 0 0 1 1z"/><path d="m28 11h10a1 1 0 0 0 0-2h-10a1 1 0 0 0 0 2z"/><path d="m25 14a1 1 0 0 0 1 1h12a1 1 0 0 0 0-2h-12a1 1 0 0 0 -1 1z"/><path d="m48 22h-20a1 1 0 0 0 0 2h20a1 1 0 0 0 0-2z"/><path d="m48 26h-22a1 1 0 0 0 0 2h22a1 1 0 0 0 0-2z"/><path d="m22 27h-.7l4.466-5.36a1 1 0 0 0 -1.536-1.28l-4.3 5.159-1.226-1.226a1 1 0 1 0 -1.414 1.414l1.296 1.293h-1.586v-4h4a1 1 0 0 0 0-2h-5a1 1 0 0 0 -1 1v6a1 1 0 0 0 1 1h6a1 1 0 0 0 0-2z"/></g></g></svg>